<svg xmlns="http://www.w3.org/2000/svg" width="408" height="178" viewBox="-204 -154 408 178"><polygon points="-180.0,0.0 -166.0,-35.0 -82.0,-35.0 -55.0,-82.0 38.0,-82.0 71.0,-130.0 156.0,-130.0 169.0,-108.0 133.0,-108.0 95.0,-52.0 171.0,-65.0 180.0,-47.0 92.0,-27.0 42.0,-18.0 -42.0,-16.0 -118.0,-3.0 " fill="#514052" opacity="1.00"/><polygon points="-166.0,-35.0 -82.0,-35.0 -55.0,-82.0 38.0,-82.0 71.0,-130.0 156.0,-130.0 162.0,-116.0 80.0,-115.0 48.0,-67.0 -42.0,-68.0 -70.0,-22.0 -165.0,-21.0 " fill="#B49197" opacity="0.33"/><path d="M -156 -16 Q -53 -37 14 -32 Q 71 -35 150 -59 M -16 -40 L -3 -56 M 99 -86 L 119 -100" fill="none" stroke="#F2E7D0" stroke-width="1.30" opacity="0.20" stroke-linecap="round" stroke-linejoin="round"/><path d="M -175.33 -7.01 l 3.93 -1.27" fill="none" stroke="#F2E7D0" stroke-width="0.26" opacity="0.23"/><circle cx="72.25" cy="-122.86" r="0.24" fill="#F2E7D0" opacity="0.19"/><circle cx="97.72" cy="-95.71" r="0.43" fill="#F2E7D0" opacity="0.22"/><circle cx="67.52" cy="-61.74" r="0.17" fill="#F2E7D0" opacity="0.22"/><circle cx="-63.08" cy="-17.45" r="0.29" fill="#F2E7D0" opacity="0.18"/><circle cx="31.80" cy="-80.42" r="0.38" fill="#F2E7D0" opacity="0.18"/><path d="M 92.51 -96.48 l 2.76 0.30" fill="none" stroke="#F2E7D0" stroke-width="0.42" opacity="0.09"/><circle cx="-165.04" cy="-14.41" r="0.23" fill="#F2E7D0" opacity="0.18"/><circle cx="8.81" cy="-54.96" r="0.25" fill="#F2E7D0" opacity="0.14"/><circle cx="119.31" cy="-108.46" r="0.43" fill="#F2E7D0" opacity="0.22"/><circle cx="61.45" cy="-60.67" r="0.69" fill="#F2E7D0" opacity="0.19"/><circle cx="91.96" cy="-126.54" r="0.24" fill="#F2E7D0" opacity="0.21"/><path d="M -163.62 -1.83 l 3.97 0.24" fill="none" stroke="#F2E7D0" stroke-width="0.19" opacity="0.13"/><circle cx="-146.54" cy="-30.65" r="0.35" fill="#F2E7D0" opacity="0.17"/><circle cx="75.50" cy="-95.75" r="0.39" fill="#F2E7D0" opacity="0.14"/><circle cx="62.20" cy="-28.99" r="0.32" fill="#F2E7D0" opacity="0.09"/><path d="M -31.91 -79.48 l 4.47 0.82" fill="none" stroke="#F2E7D0" stroke-width="0.09" opacity="0.05"/><circle cx="-61.43" cy="-12.81" r="0.11" fill="#F2E7D0" opacity="0.04"/><circle cx="-169.15" cy="-18.93" r="0.32" fill="#F2E7D0" opacity="0.11"/><circle cx="137.00" cy="-58.49" r="0.55" fill="#F2E7D0" opacity="0.06"/><path d="M 106.35 -81.89 l 0.77 1.06" fill="none" stroke="#F2E7D0" stroke-width="0.58" opacity="0.16"/><circle cx="-171.03" cy="-0.71" r="0.26" fill="#F2E7D0" opacity="0.09"/><path d="M 54.15 -38.44 l 3.71 -0.75" fill="none" stroke="#F2E7D0" stroke-width="0.13" opacity="0.04"/><circle cx="116.61" cy="-123.99" r="0.50" fill="#F2E7D0" opacity="0.15"/><circle cx="-39.72" cy="-71.59" r="0.54" fill="#F2E7D0" opacity="0.11"/><path d="M -50.91 -61.71 l 3.03 0.52" fill="none" stroke="#F2E7D0" stroke-width="0.56" opacity="0.18"/><circle cx="-118.59" cy="-15.07" r="0.25" fill="#F2E7D0" opacity="0.12"/><circle cx="-59.18" cy="-74.09" r="0.10" fill="#F2E7D0" opacity="0.22"/><circle cx="-42.05" cy="-80.79" r="0.10" fill="#F2E7D0" opacity="0.08"/><circle cx="4.37" cy="-55.36" r="0.61" fill="#F2E7D0" opacity="0.26"/><circle cx="107.25" cy="-73.40" r="0.70" fill="#F2E7D0" opacity="0.16"/><circle cx="-145.82" cy="-12.99" r="0.58" fill="#F2E7D0" opacity="0.22"/><circle cx="-20.98" cy="-41.87" r="0.63" fill="#F2E7D0" opacity="0.25"/><circle cx="51.48" cy="-27.43" r="0.50" fill="#F2E7D0" opacity="0.26"/><circle cx="93.12" cy="-38.32" r="0.36" fill="#F2E7D0" opacity="0.04"/><circle cx="-23.64" cy="-46.04" r="0.39" fill="#F2E7D0" opacity="0.17"/><circle cx="-11.73" cy="-38.14" r="0.60" fill="#F2E7D0" opacity="0.22"/><circle cx="72.37" cy="-78.75" r="0.61" fill="#F2E7D0" opacity="0.08"/><circle cx="-173.56" cy="-15.22" r="0.14" fill="#F2E7D0" opacity="0.19"/><circle cx="25.30" cy="-63.55" r="0.17" fill="#F2E7D0" opacity="0.10"/><circle cx="25.18" cy="-67.86" r="0.65" fill="#F2E7D0" opacity="0.16"/><circle cx="92.27" cy="-116.83" r="0.51" fill="#F2E7D0" opacity="0.24"/><circle cx="144.49" cy="-47.60" r="0.42" fill="#F2E7D0" opacity="0.06"/><circle cx="12.26" cy="-69.79" r="0.63" fill="#F2E7D0" opacity="0.05"/><circle cx="164.47" cy="-45.91" r="0.66" fill="#F2E7D0" opacity="0.22"/><circle cx="-83.94" cy="-9.31" r="0.38" fill="#F2E7D0" opacity="0.11"/><circle cx="-74.01" cy="-15.07" r="0.23" fill="#F2E7D0" opacity="0.11"/><circle cx="-98.86" cy="-12.73" r="0.50" fill="#F2E7D0" opacity="0.04"/><path d="M 82.77 -76.02 l 4.15 -0.58" fill="none" stroke="#F2E7D0" stroke-width="0.38" opacity="0.07"/><circle cx="33.98" cy="-57.53" r="0.41" fill="#F2E7D0" opacity="0.07"/><circle cx="-154.44" cy="-9.20" r="0.28" fill="#F2E7D0" opacity="0.21"/><circle cx="30.26" cy="-24.11" r="0.51" fill="#F2E7D0" opacity="0.15"/><path d="M -21.70 -69.36 l 3.60 -0.40" fill="none" stroke="#F2E7D0" stroke-width="0.34" opacity="0.14"/><circle cx="-170.06" cy="-1.56" r="0.58" fill="#F2E7D0" opacity="0.13"/><circle cx="94.55" cy="-80.90" r="0.48" fill="#F2E7D0" opacity="0.13"/><circle cx="-110.30" cy="-11.17" r="0.38" fill="#F2E7D0" opacity="0.07"/><circle cx="27.41" cy="-63.50" r="0.51" fill="#F2E7D0" opacity="0.25"/><circle cx="11.57" cy="-26.69" r="0.24" fill="#F2E7D0" opacity="0.05"/><circle cx="66.95" cy="-89.15" r="0.33" fill="#F2E7D0" opacity="0.19"/><circle cx="-138.28" cy="-18.56" r="0.17" fill="#F2E7D0" opacity="0.06"/><path d="M 85.39 -54.17 l 1.70 0.62" fill="none" stroke="#F2E7D0" stroke-width="0.35" opacity="0.08"/><circle cx="106.79" cy="-44.44" r="0.45" fill="#F2E7D0" opacity="0.11"/><circle cx="-103.62" cy="-11.00" r="0.30" fill="#F2E7D0" opacity="0.07"/><circle cx="64.24" cy="-95.73" r="0.51" fill="#F2E7D0" opacity="0.17"/><circle cx="57.64" cy="-93.54" r="0.46" fill="#F2E7D0" opacity="0.14"/><circle cx="64.31" cy="-85.55" r="0.28" fill="#F2E7D0" opacity="0.23"/><circle cx="158.48" cy="-111.92" r="0.24" fill="#F2E7D0" opacity="0.10"/><circle cx="75.25" cy="-125.96" r="0.57" fill="#F2E7D0" opacity="0.05"/><circle cx="-19.85" cy="-22.83" r="0.61" fill="#F2E7D0" opacity="0.04"/><path d="M 13.20 -81.60 l 1.64 0.72" fill="none" stroke="#F2E7D0" stroke-width="0.26" opacity="0.26"/><circle cx="-21.38" cy="-27.97" r="0.65" fill="#F2E7D0" opacity="0.05"/><circle cx="-91.36" cy="-21.57" r="0.27" fill="#F2E7D0" opacity="0.10"/><circle cx="35.51" cy="-35.99" r="0.23" fill="#F2E7D0" opacity="0.15"/><path d="M -73.33 -28.21 l 2.12 -0.53" fill="none" stroke="#F2E7D0" stroke-width="0.27" opacity="0.19"/><circle cx="96.90" cy="-101.42" r="0.56" fill="#F2E7D0" opacity="0.22"/><circle cx="152.56" cy="-59.02" r="0.43" fill="#F2E7D0" opacity="0.15"/><circle cx="9.71" cy="-18.07" r="0.09" fill="#F2E7D0" opacity="0.18"/><path d="M -63.03 -66.34 l 2.36 1.04" fill="none" stroke="#F2E7D0" stroke-width="0.12" opacity="0.12"/><circle cx="86.95" cy="-109.44" r="0.29" fill="#F2E7D0" opacity="0.14"/><circle cx="-4.50" cy="-33.89" r="0.58" fill="#F2E7D0" opacity="0.21"/><circle cx="117.15" cy="-51.48" r="0.55" fill="#F2E7D0" opacity="0.24"/><circle cx="-133.47" cy="-11.15" r="0.39" fill="#F2E7D0" opacity="0.21"/><circle cx="-53.92" cy="-56.69" r="0.25" fill="#F2E7D0" opacity="0.24"/><circle cx="-57.84" cy="-32.84" r="0.27" fill="#F2E7D0" opacity="0.08"/><circle cx="-145.53" cy="-20.04" r="0.59" fill="#F2E7D0" opacity="0.09"/><circle cx="-93.93" cy="-26.13" r="0.10" fill="#F2E7D0" opacity="0.09"/><circle cx="-20.40" cy="-36.70" r="0.69" fill="#F2E7D0" opacity="0.18"/><circle cx="87.43" cy="-73.27" r="0.63" fill="#F2E7D0" opacity="0.06"/><circle cx="-159.29" cy="-33.14" r="0.51" fill="#F2E7D0" opacity="0.13"/><circle cx="-58.12" cy="-76.37" r="0.24" fill="#F2E7D0" opacity="0.16"/><path d="M -68.83 -48.52 l 2.43 0.19" fill="none" stroke="#F2E7D0" stroke-width="0.52" opacity="0.20"/><circle cx="-22.18" cy="-16.47" r="0.56" fill="#F2E7D0" opacity="0.11"/><circle cx="75.63" cy="-90.99" r="0.15" fill="#F2E7D0" opacity="0.08"/><circle cx="-142.99" cy="-33.20" r="0.21" fill="#F2E7D0" opacity="0.04"/><path d="M 81.71 -73.75 l 3.84 0.29" fill="none" stroke="#F2E7D0" stroke-width="0.30" opacity="0.23"/><circle cx="-9.20" cy="-54.96" r="0.63" fill="#F2E7D0" opacity="0.22"/><circle cx="24.94" cy="-73.10" r="0.19" fill="#F2E7D0" opacity="0.23"/><circle cx="-121.24" cy="-9.28" r="0.65" fill="#F2E7D0" opacity="0.08"/><circle cx="-12.71" cy="-78.64" r="0.62" fill="#F2E7D0" opacity="0.15"/><circle cx="115.37" cy="-110.35" r="0.53" fill="#F2E7D0" opacity="0.16"/><circle cx="16.88" cy="-79.29" r="0.35" fill="#F2E7D0" opacity="0.22"/><circle cx="131.93" cy="-121.83" r="0.49" fill="#F2E7D0" opacity="0.18"/><path d="M 93.18 -77.16 l 2.31 0.05" fill="none" stroke="#F2E7D0" stroke-width="0.08" opacity="0.24"/><circle cx="-45.96" cy="-78.16" r="0.61" fill="#F2E7D0" opacity="0.20"/><circle cx="106.42" cy="-39.50" r="0.67" fill="#F2E7D0" opacity="0.08"/><circle cx="33.18" cy="-74.69" r="0.41" fill="#F2E7D0" opacity="0.13"/><circle cx="90.62" cy="-107.89" r="0.66" fill="#F2E7D0" opacity="0.05"/><circle cx="34.18" cy="-59.44" r="0.68" fill="#F2E7D0" opacity="0.20"/><circle cx="-24.29" cy="-67.92" r="0.43" fill="#F2E7D0" opacity="0.20"/><circle cx="-62.14" cy="-37.19" r="0.32" fill="#F2E7D0" opacity="0.25"/><circle cx="-89.88" cy="-11.86" r="0.28" fill="#F2E7D0" opacity="0.23"/><circle cx="122.82" cy="-121.99" r="0.43" fill="#F2E7D0" opacity="0.14"/><circle cx="-66.71" cy="-20.50" r="0.11" fill="#F2E7D0" opacity="0.12"/><circle cx="-50.76" cy="-54.45" r="0.26" fill="#F2E7D0" opacity="0.23"/><circle cx="92.73" cy="-96.07" r="0.11" fill="#F2E7D0" opacity="0.12"/><circle cx="139.64" cy="-111.34" r="0.14" fill="#F2E7D0" opacity="0.07"/><path d="M -131.09 -5.44 l 2.11 -0.73" fill="none" stroke="#F2E7D0" stroke-width="0.16" opacity="0.06"/><path d="M -38.01 -62.76 l 1.03 -0.69" fill="none" stroke="#F2E7D0" stroke-width="0.50" opacity="0.12"/><circle cx="-21.69" cy="-39.36" r="0.65" fill="#F2E7D0" opacity="0.24"/><circle cx="-78.66" cy="-32.01" r="0.20" fill="#F2E7D0" opacity="0.05"/><circle cx="38.89" cy="-37.92" r="0.22" fill="#F2E7D0" opacity="0.09"/><circle cx="-36.87" cy="-60.10" r="0.51" fill="#F2E7D0" opacity="0.15"/><circle cx="-44.82" cy="-69.92" r="0.67" fill="#F2E7D0" opacity="0.20"/><circle cx="57.30" cy="-75.96" r="0.64" fill="#F2E7D0" opacity="0.07"/><circle cx="63.97" cy="-48.28" r="0.52" fill="#F2E7D0" opacity="0.11"/><circle cx="16.26" cy="-69.71" r="0.68" fill="#F2E7D0" opacity="0.14"/><circle cx="75.77" cy="-28.83" r="0.20" fill="#F2E7D0" opacity="0.11"/><circle cx="10.70" cy="-45.23" r="0.57" fill="#F2E7D0" opacity="0.23"/><circle cx="-80.87" cy="-27.00" r="0.68" fill="#F2E7D0" opacity="0.22"/><path d="M 64.38 -41.57 l 2.77 -0.10" fill="none" stroke="#F2E7D0" stroke-width="0.69" opacity="0.06"/><circle cx="73.03" cy="-57.27" r="0.43" fill="#F2E7D0" opacity="0.05"/><circle cx="69.00" cy="-47.29" r="0.21" fill="#F2E7D0" opacity="0.04"/><circle cx="-127.66" cy="-29.47" r="0.67" fill="#F2E7D0" opacity="0.09"/><circle cx="92.42" cy="-55.25" r="0.27" fill="#F2E7D0" opacity="0.19"/><circle cx="-24.05" cy="-31.70" r="0.22" fill="#F2E7D0" opacity="0.10"/><circle cx="6.18" cy="-61.41" r="0.52" fill="#F2E7D0" opacity="0.05"/><circle cx="142.83" cy="-123.25" r="0.21" fill="#F2E7D0" opacity="0.19"/><path d="M 136.76 -50.39 l 3.45 1.10" fill="none" stroke="#F2E7D0" stroke-width="0.43" opacity="0.16"/><circle cx="144.70" cy="-52.13" r="0.42" fill="#F2E7D0" opacity="0.08"/><circle cx="32.84" cy="-42.59" r="0.32" fill="#F2E7D0" opacity="0.26"/><path d="M 142.05 -114.34 l 1.12 -1.26" fill="none" stroke="#F2E7D0" stroke-width="0.36" opacity="0.16"/><circle cx="104.56" cy="-100.70" r="0.19" fill="#F2E7D0" opacity="0.23"/><circle cx="70.56" cy="-70.54" r="0.63" fill="#F2E7D0" opacity="0.04"/><circle cx="-46.71" cy="-60.31" r="0.35" fill="#F2E7D0" opacity="0.13"/><circle cx="-59.30" cy="-70.21" r="0.55" fill="#F2E7D0" opacity="0.11"/><circle cx="87.56" cy="-110.40" r="0.22" fill="#F2E7D0" opacity="0.06"/><circle cx="6.22" cy="-42.84" r="0.38" fill="#F2E7D0" opacity="0.24"/><path d="M 35.93 -72.33 l 3.26 1.01" fill="none" stroke="#F2E7D0" stroke-width="0.21" opacity="0.09"/><circle cx="54.05" cy="-56.72" r="0.31" fill="#F2E7D0" opacity="0.16"/><circle cx="-40.31" cy="-37.49" r="0.29" fill="#F2E7D0" opacity="0.22"/><path d="M 52.22 -23.78 l 2.70 0.67" fill="none" stroke="#F2E7D0" stroke-width="0.33" opacity="0.20"/><circle cx="-152.63" cy="-34.65" r="0.62" fill="#F2E7D0" opacity="0.10"/><circle cx="-129.74" cy="-27.73" r="0.46" fill="#F2E7D0" opacity="0.07"/><path d="M 141.24 -116.13 l 4.01 -0.73" fill="none" stroke="#F2E7D0" stroke-width="0.16" opacity="0.12"/><circle cx="172.88" cy="-46.56" r="0.14" fill="#F2E7D0" opacity="0.23"/><circle cx="-31.87" cy="-35.29" r="0.22" fill="#F2E7D0" opacity="0.17"/><circle cx="61.82" cy="-77.93" r="0.44" fill="#F2E7D0" opacity="0.04"/><circle cx="-94.47" cy="-34.34" r="0.33" fill="#F2E7D0" opacity="0.15"/><path d="M 39.77 -23.64 l 4.39 -0.74" fill="none" stroke="#F2E7D0" stroke-width="0.26" opacity="0.17"/><circle cx="-83.02" cy="-28.77" r="0.13" fill="#F2E7D0" opacity="0.23"/><circle cx="16.14" cy="-20.28" r="0.38" fill="#F2E7D0" opacity="0.09"/><circle cx="-34.72" cy="-81.94" r="0.53" fill="#F2E7D0" opacity="0.14"/><circle cx="95.77" cy="-85.75" r="0.23" fill="#F2E7D0" opacity="0.26"/><circle cx="-109.25" cy="-19.51" r="0.64" fill="#F2E7D0" opacity="0.13"/><circle cx="90.85" cy="-75.40" r="0.57" fill="#F2E7D0" opacity="0.10"/><circle cx="122.17" cy="-107.55" r="0.57" fill="#F2E7D0" opacity="0.08"/><circle cx="2.28" cy="-51.87" r="0.15" fill="#F2E7D0" opacity="0.07"/><circle cx="-34.52" cy="-31.34" r="0.24" fill="#F2E7D0" opacity="0.23"/><path d="M -30.97 -35.27 l 2.00 0.79" fill="none" stroke="#F2E7D0" stroke-width="0.18" opacity="0.24"/><circle cx="11.82" cy="-47.45" r="0.67" fill="#F2E7D0" opacity="0.17"/><circle cx="154.63" cy="-121.49" r="0.21" fill="#F2E7D0" opacity="0.07"/><circle cx="-113.35" cy="-6.80" r="0.61" fill="#F2E7D0" opacity="0.20"/><circle cx="87.57" cy="-122.29" r="0.15" fill="#F2E7D0" opacity="0.18"/><circle cx="107.84" cy="-90.39" r="0.23" fill="#F2E7D0" opacity="0.16"/><circle cx="103.47" cy="-47.05" r="0.61" fill="#F2E7D0" opacity="0.09"/><circle cx="-69.46" cy="-49.63" r="0.67" fill="#F2E7D0" opacity="0.17"/><circle cx="49.25" cy="-68.67" r="0.62" fill="#F2E7D0" opacity="0.10"/><circle cx="113.07" cy="-86.92" r="0.53" fill="#F2E7D0" opacity="0.17"/><path d="M 96.64 -35.47 l 3.58 0.91" fill="none" stroke="#F2E7D0" stroke-width="0.19" opacity="0.08"/><circle cx="138.05" cy="-38.75" r="0.66" fill="#F2E7D0" opacity="0.22"/><circle cx="-40.82" cy="-43.85" r="0.19" fill="#F2E7D0" opacity="0.25"/><circle cx="66.66" cy="-32.29" r="0.24" fill="#F2E7D0" opacity="0.18"/><circle cx="79.86" cy="-75.99" r="0.16" fill="#F2E7D0" opacity="0.18"/><path d="M -81.35 -16.90 l 0.35 -0.00" fill="none" stroke="#F2E7D0" stroke-width="0.65" opacity="0.23"/><circle cx="-146.64" cy="-18.69" r="0.30" fill="#F2E7D0" opacity="0.05"/><path d="M -2.38 -31.83 l 1.94 -1.20" fill="none" stroke="#F2E7D0" stroke-width="0.16" opacity="0.26"/><path d="M -146.63 -8.93 l 1.28 -0.13" fill="none" stroke="#F2E7D0" stroke-width="0.55" opacity="0.22"/><circle cx="-65.31" cy="-48.27" r="0.48" fill="#F2E7D0" opacity="0.20"/><circle cx="7.48" cy="-33.18" r="0.35" fill="#F2E7D0" opacity="0.10"/><circle cx="98.87" cy="-98.29" r="0.32" fill="#F2E7D0" opacity="0.16"/><circle cx="-28.30" cy="-50.83" r="0.35" fill="#F2E7D0" opacity="0.10"/><circle cx="-31.39" cy="-26.90" r="0.47" fill="#F2E7D0" opacity="0.09"/><circle cx="-62.75" cy="-15.51" r="0.51" fill="#F2E7D0" opacity="0.22"/><circle cx="-33.01" cy="-40.17" r="0.70" fill="#F2E7D0" opacity="0.24"/><circle cx="86.75" cy="-56.34" r="0.67" fill="#F2E7D0" opacity="0.13"/><circle cx="-71.57" cy="-11.55" r="0.10" fill="#F2E7D0" opacity="0.12"/><circle cx="-5.32" cy="-57.18" r="0.69" fill="#F2E7D0" opacity="0.24"/><circle cx="48.77" cy="-77.55" r="0.13" fill="#F2E7D0" opacity="0.12"/><circle cx="-28.75" cy="-19.12" r="0.38" fill="#F2E7D0" opacity="0.11"/><circle cx="101.58" cy="-38.40" r="0.49" fill="#F2E7D0" opacity="0.26"/><circle cx="120.11" cy="-119.47" r="0.66" fill="#F2E7D0" opacity="0.26"/><circle cx="74.42" cy="-117.81" r="0.32" fill="#F2E7D0" opacity="0.23"/><path d="M -6.22 -28.66 l 3.66 -0.39" fill="none" stroke="#F2E7D0" stroke-width="0.61" opacity="0.17"/><circle cx="99.49" cy="-87.90" r="0.65" fill="#F2E7D0" opacity="0.15"/><circle cx="-9.20" cy="-23.82" r="0.15" fill="#F2E7D0" opacity="0.22"/><path d="M 98.19 -59.35 l 3.58 -0.23" fill="none" stroke="#F2E7D0" stroke-width="0.66" opacity="0.13"/><circle cx="-147.41" cy="-15.02" r="0.67" fill="#F2E7D0" opacity="0.21"/><circle cx="146.05" cy="-118.52" r="0.68" fill="#F2E7D0" opacity="0.05"/><circle cx="162.94" cy="-51.70" r="0.29" fill="#F2E7D0" opacity="0.18"/><circle cx="24.42" cy="-33.18" r="0.37" fill="#F2E7D0" opacity="0.05"/><circle cx="74.50" cy="-87.30" r="0.51" fill="#F2E7D0" opacity="0.06"/><path d="M 11.46 -80.77 l 0.67 0.32" fill="none" stroke="#F2E7D0" stroke-width="0.68" opacity="0.11"/><circle cx="127.66" cy="-109.38" r="0.61" fill="#F2E7D0" opacity="0.24"/><circle cx="3.18" cy="-25.50" r="0.46" fill="#F2E7D0" opacity="0.08"/><circle cx="-80.40" cy="-29.95" r="0.15" fill="#F2E7D0" opacity="0.07"/><path d="M -93.97 -9.30 l 4.22 -1.24" fill="none" stroke="#F2E7D0" stroke-width="0.32" opacity="0.26"/><circle cx="-22.87" cy="-66.22" r="0.12" fill="#F2E7D0" opacity="0.08"/><circle cx="106.93" cy="-47.74" r="0.17" fill="#F2E7D0" opacity="0.15"/><path d="M 28.69 -74.18 l 3.23 -0.15" fill="none" stroke="#F2E7D0" stroke-width="0.57" opacity="0.23"/><circle cx="-30.57" cy="-57.43" r="0.70" fill="#F2E7D0" opacity="0.17"/><circle cx="91.20" cy="-27.19" r="0.32" fill="#F2E7D0" opacity="0.21"/><circle cx="113.84" cy="-92.80" r="0.52" fill="#F2E7D0" opacity="0.21"/><circle cx="-103.83" cy="-18.16" r="0.44" fill="#F2E7D0" opacity="0.17"/><circle cx="-68.18" cy="-57.06" r="0.33" fill="#F2E7D0" opacity="0.14"/><circle cx="57.49" cy="-96.43" r="0.22" fill="#F2E7D0" opacity="0.26"/><circle cx="46.96" cy="-92.05" r="0.19" fill="#F2E7D0" opacity="0.14"/><circle cx="51.36" cy="-54.29" r="0.45" fill="#F2E7D0" opacity="0.25"/><circle cx="89.55" cy="-80.96" r="0.09" fill="#F2E7D0" opacity="0.26"/><circle cx="33.66" cy="-49.91" r="0.44" fill="#F2E7D0" opacity="0.13"/><path d="M 23.89 -75.24 l 0.81 -0.25" fill="none" stroke="#F2E7D0" stroke-width="0.68" opacity="0.21"/><circle cx="-128.64" cy="-2.99" r="0.63" fill="#F2E7D0" opacity="0.20"/><circle cx="102.80" cy="-32.59" r="0.23" fill="#F2E7D0" opacity="0.09"/><circle cx="-120.50" cy="-31.51" r="0.66" fill="#F2E7D0" opacity="0.12"/><path d="M 115.04 -44.49 l 1.48 -0.20" fill="none" stroke="#F2E7D0" stroke-width="0.15" opacity="0.08"/><circle cx="82.38" cy="-27.67" r="0.23" fill="#F2E7D0" opacity="0.24"/><path d="M 20.92 -61.54 l 3.01 0.47" fill="none" stroke="#F2E7D0" stroke-width="0.45" opacity="0.14"/><circle cx="44.04" cy="-31.67" r="0.66" fill="#F2E7D0" opacity="0.25"/><circle cx="82.17" cy="-52.76" r="0.27" fill="#F2E7D0" opacity="0.25"/><circle cx="171.19" cy="-46.64" r="0.65" fill="#F2E7D0" opacity="0.12"/><path d="M 103.98 -95.65 l 0.37 1.09" fill="none" stroke="#F2E7D0" stroke-width="0.47" opacity="0.05"/><circle cx="40.23" cy="-46.15" r="0.46" fill="#F2E7D0" opacity="0.13"/><circle cx="-13.12" cy="-45.12" r="0.30" fill="#F2E7D0" opacity="0.25"/><circle cx="62.78" cy="-111.34" r="0.20" fill="#F2E7D0" opacity="0.07"/><circle cx="74.87" cy="-108.56" r="0.34" fill="#F2E7D0" opacity="0.21"/><circle cx="85.83" cy="-79.95" r="0.27" fill="#F2E7D0" opacity="0.06"/><path d="M 124.56 -102.86 l 2.42 0.73" fill="none" stroke="#F2E7D0" stroke-width="0.53" opacity="0.10"/><circle cx="44.31" cy="-35.50" r="0.17" fill="#F2E7D0" opacity="0.13"/><circle cx="1.77" cy="-46.40" r="0.66" fill="#F2E7D0" opacity="0.04"/><path d="M -97.69 -15.94 l 3.70 0.69" fill="none" stroke="#F2E7D0" stroke-width="0.14" opacity="0.18"/><circle cx="138.41" cy="-114.90" r="0.30" fill="#F2E7D0" opacity="0.13"/><circle cx="-67.69" cy="-52.25" r="0.30" fill="#F2E7D0" opacity="0.17"/><circle cx="-57.93" cy="-70.14" r="0.11" fill="#F2E7D0" opacity="0.06"/><path d="M -42.43 -60.09 l 3.74 -0.73" fill="none" stroke="#F2E7D0" stroke-width="0.48" opacity="0.12"/><circle cx="-60.34" cy="-12.91" r="0.09" fill="#F2E7D0" opacity="0.10"/><circle cx="65.60" cy="-107.44" r="0.09" fill="#F2E7D0" opacity="0.15"/><circle cx="-58.40" cy="-57.09" r="0.30" fill="#F2E7D0" opacity="0.19"/><circle cx="89.57" cy="-95.08" r="0.50" fill="#F2E7D0" opacity="0.09"/><circle cx="29.44" cy="-49.92" r="0.60" fill="#F2E7D0" opacity="0.13"/><circle cx="76.53" cy="-70.88" r="0.13" fill="#F2E7D0" opacity="0.06"/><circle cx="-50.85" cy="-61.40" r="0.40" fill="#F2E7D0" opacity="0.16"/><circle cx="-154.01" cy="-22.18" r="0.24" fill="#F2E7D0" opacity="0.16"/><circle cx="17.82" cy="-64.85" r="0.57" fill="#F2E7D0" opacity="0.09"/><circle cx="101.84" cy="-112.42" r="0.48" fill="#F2E7D0" opacity="0.23"/><circle cx="66.73" cy="-106.96" r="0.65" fill="#F2E7D0" opacity="0.13"/><circle cx="-46.94" cy="-16.92" r="0.45" fill="#F2E7D0" opacity="0.16"/><circle cx="15.23" cy="-73.95" r="0.24" fill="#F2E7D0" opacity="0.06"/><path d="M 103.33 -110.01 l 0.71 -0.41" fill="none" stroke="#F2E7D0" stroke-width="0.18" opacity="0.24"/><circle cx="120.94" cy="-93.62" r="0.19" fill="#F2E7D0" opacity="0.11"/><circle cx="145.87" cy="-58.27" r="0.46" fill="#F2E7D0" opacity="0.13"/><circle cx="39.22" cy="-62.49" r="0.49" fill="#F2E7D0" opacity="0.20"/><circle cx="52.72" cy="-20.83" r="0.66" fill="#F2E7D0" opacity="0.19"/><path d="M 98.90 -76.51 l 1.40 -0.63" fill="none" stroke="#F2E7D0" stroke-width="0.11" opacity="0.23"/><circle cx="41.14" cy="-32.48" r="0.43" fill="#F2E7D0" opacity="0.09"/><circle cx="21.02" cy="-47.95" r="0.26" fill="#F2E7D0" opacity="0.05"/><path d="M 46.81 -20.23 l 1.85 -1.20" fill="none" stroke="#F2E7D0" stroke-width="0.21" opacity="0.23"/><circle cx="116.42" cy="-103.30" r="0.53" fill="#F2E7D0" opacity="0.13"/><circle cx="83.23" cy="-56.14" r="0.59" fill="#F2E7D0" opacity="0.16"/><circle cx="79.66" cy="-95.02" r="0.37" fill="#F2E7D0" opacity="0.17"/><path d="M -16.16 -42.43 l 4.46 0.21" fill="none" stroke="#F2E7D0" stroke-width="0.61" opacity="0.23"/><circle cx="35.06" cy="-56.07" r="0.52" fill="#F2E7D0" opacity="0.15"/><circle cx="55.70" cy="-26.10" r="0.54" fill="#F2E7D0" opacity="0.20"/><path d="M -116.25 -18.76 l 1.29 -0.86" fill="none" stroke="#F2E7D0" stroke-width="0.15" opacity="0.11"/><circle cx="-87.77" cy="-19.11" r="0.49" fill="#F2E7D0" opacity="0.17"/><circle cx="95.63" cy="-71.74" r="0.24" fill="#F2E7D0" opacity="0.22"/><circle cx="-161.35" cy="-10.25" r="0.24" fill="#F2E7D0" opacity="0.18"/><path d="M -104.78 -32.36 l 0.69 0.51" fill="none" stroke="#F2E7D0" stroke-width="0.13" opacity="0.18"/><circle cx="-58.27" cy="-53.86" r="0.41" fill="#F2E7D0" opacity="0.07"/><circle cx="111.05" cy="-91.98" r="0.22" fill="#F2E7D0" opacity="0.18"/><circle cx="-125.94" cy="-22.77" r="0.53" fill="#F2E7D0" opacity="0.23"/><circle cx="-142.64" cy="-27.43" r="0.31" fill="#F2E7D0" opacity="0.21"/><circle cx="6.02" cy="-39.39" r="0.37" fill="#F2E7D0" opacity="0.19"/><circle cx="-44.22" cy="-69.29" r="0.62" fill="#F2E7D0" opacity="0.07"/><circle cx="-120.11" cy="-24.05" r="0.21" fill="#F2E7D0" opacity="0.20"/><path d="M -24.71 -66.90 l 3.13 -0.24" fill="none" stroke="#F2E7D0" stroke-width="0.26" opacity="0.19"/><circle cx="44.68" cy="-60.02" r="0.46" fill="#F2E7D0" opacity="0.09"/><circle cx="132.28" cy="-47.46" r="0.54" fill="#F2E7D0" opacity="0.07"/><circle cx="-33.44" cy="-22.90" r="0.51" fill="#F2E7D0" opacity="0.16"/><circle cx="-20.23" cy="-79.54" r="0.69" fill="#F2E7D0" opacity="0.20"/><circle cx="60.36" cy="-89.15" r="0.40" fill="#F2E7D0" opacity="0.25"/><circle cx="64.53" cy="-49.82" r="0.09" fill="#F2E7D0" opacity="0.13"/><circle cx="-23.19" cy="-60.99" r="0.25" fill="#F2E7D0" opacity="0.20"/><circle cx="54.78" cy="-44.16" r="0.38" fill="#F2E7D0" opacity="0.23"/><circle cx="-90.37" cy="-27.61" r="0.53" fill="#F2E7D0" opacity="0.24"/><circle cx="-80.56" cy="-18.48" r="0.29" fill="#F2E7D0" opacity="0.11"/><circle cx="-67.05" cy="-40.31" r="0.17" fill="#F2E7D0" opacity="0.25"/><circle cx="23.73" cy="-24.47" r="0.57" fill="#F2E7D0" opacity="0.11"/><path d="M 78.38 -62.55 l 2.60 -0.11" fill="none" stroke="#F2E7D0" stroke-width="0.34" opacity="0.21"/><circle cx="-150.23" cy="-29.85" r="0.48" fill="#F2E7D0" opacity="0.09"/><circle cx="85.70" cy="-35.58" r="0.13" fill="#F2E7D0" opacity="0.26"/><path d="M 4.43 -38.66 l 1.04 -0.73" fill="none" stroke="#F2E7D0" stroke-width="0.49" opacity="0.19"/><circle cx="-56.94" cy="-36.50" r="0.36" fill="#F2E7D0" opacity="0.12"/><circle cx="81.01" cy="-27.09" r="0.21" fill="#F2E7D0" opacity="0.12"/><circle cx="-15.64" cy="-18.82" r="0.67" fill="#F2E7D0" opacity="0.21"/><circle cx="127.74" cy="-121.97" r="0.33" fill="#F2E7D0" opacity="0.09"/><path d="M 104.30 -35.47 l 0.64 0.15" fill="none" stroke="#F2E7D0" stroke-width="0.17" opacity="0.11"/><circle cx="110.23" cy="-45.87" r="0.50" fill="#F2E7D0" opacity="0.25"/><circle cx="-135.09" cy="-22.28" r="0.67" fill="#F2E7D0" opacity="0.19"/><circle cx="112.67" cy="-122.78" r="0.16" fill="#F2E7D0" opacity="0.22"/><path d="M 148.80 -108.69 l 1.95 -0.10" fill="none" stroke="#F2E7D0" stroke-width="0.41" opacity="0.11"/><circle cx="-3.46" cy="-22.42" r="0.12" fill="#F2E7D0" opacity="0.25"/><circle cx="153.15" cy="-48.77" r="0.40" fill="#F2E7D0" opacity="0.18"/><path d="M 0.72 -43.38 l 4.16 0.53" fill="none" stroke="#F2E7D0" stroke-width="0.54" opacity="0.11"/><circle cx="-48.60" cy="-27.00" r="0.41" fill="#F2E7D0" opacity="0.12"/><path d="M 49.60 -41.89 l 2.92 0.97" fill="none" stroke="#F2E7D0" stroke-width="0.27" opacity="0.20"/><circle cx="61.91" cy="-79.33" r="0.39" fill="#F2E7D0" opacity="0.09"/><circle cx="100.63" cy="-49.22" r="0.38" fill="#F2E7D0" opacity="0.24"/><circle cx="54.50" cy="-27.68" r="0.38" fill="#F2E7D0" opacity="0.20"/><circle cx="123.41" cy="-118.55" r="0.45" fill="#F2E7D0" opacity="0.15"/><circle cx="1.11" cy="-81.68" r="0.16" fill="#F2E7D0" opacity="0.17"/><circle cx="135.59" cy="-116.20" r="0.45" fill="#F2E7D0" opacity="0.20"/><circle cx="71.25" cy="-103.38" r="0.40" fill="#F2E7D0" opacity="0.18"/><circle cx="-139.43" cy="-24.79" r="0.18" fill="#F2E7D0" opacity="0.16"/><circle cx="40.10" cy="-32.52" r="0.27" fill="#F2E7D0" opacity="0.18"/><circle cx="-25.18" cy="-29.48" r="0.21" fill="#F2E7D0" opacity="0.10"/><circle cx="-58.41" cy="-36.63" r="0.12" fill="#F2E7D0" opacity="0.14"/><circle cx="64.68" cy="-105.67" r="0.47" fill="#F2E7D0" opacity="0.19"/><circle cx="30.15" cy="-34.44" r="0.62" fill="#F2E7D0" opacity="0.11"/><circle cx="-100.57" cy="-17.69" r="0.29" fill="#F2E7D0" opacity="0.17"/><circle cx="79.10" cy="-50.99" r="0.40" fill="#F2E7D0" opacity="0.18"/><path d="M -53.14 -54.93 l 1.48 -0.47" fill="none" stroke="#F2E7D0" stroke-width="0.12" opacity="0.20"/><circle cx="79.70" cy="-53.82" r="0.50" fill="#F2E7D0" opacity="0.19"/><circle cx="135.04" cy="-55.28" r="0.46" fill="#F2E7D0" opacity="0.20"/><circle cx="84.45" cy="-89.70" r="0.11" fill="#F2E7D0" opacity="0.24"/><circle cx="116.06" cy="-53.79" r="0.36" fill="#F2E7D0" opacity="0.13"/><circle cx="-88.72" cy="-23.80" r="0.40" fill="#F2E7D0" opacity="0.16"/><path d="M -47.19 -67.22 l 3.28 -1.07" fill="none" stroke="#F2E7D0" stroke-width="0.63" opacity="0.16"/><circle cx="84.13" cy="-50.25" r="0.67" fill="#F2E7D0" opacity="0.15"/><circle cx="-5.54" cy="-53.77" r="0.50" fill="#F2E7D0" opacity="0.18"/><circle cx="28.51" cy="-45.73" r="0.64" fill="#F2E7D0" opacity="0.06"/><circle cx="79.97" cy="-50.40" r="0.34" fill="#F2E7D0" opacity="0.17"/><circle cx="-56.04" cy="-26.92" r="0.63" fill="#F2E7D0" opacity="0.13"/><circle cx="96.40" cy="-39.74" r="0.68" fill="#F2E7D0" opacity="0.24"/><circle cx="-78.01" cy="-35.94" r="0.14" fill="#F2E7D0" opacity="0.11"/><circle cx="-47.38" cy="-58.04" r="0.54" fill="#F2E7D0" opacity="0.05"/><circle cx="-35.47" cy="-80.78" r="0.08" fill="#F2E7D0" opacity="0.20"/><circle cx="95.12" cy="-80.54" r="0.47" fill="#F2E7D0" opacity="0.06"/><circle cx="132.85" cy="-123.55" r="0.32" fill="#F2E7D0" opacity="0.26"/><circle cx="96.31" cy="-79.78" r="0.52" fill="#F2E7D0" opacity="0.20"/><circle cx="-64.27" cy="-47.29" r="0.63" fill="#F2E7D0" opacity="0.07"/><circle cx="79.77" cy="-77.01" r="0.55" fill="#F2E7D0" opacity="0.09"/><circle cx="104.75" cy="-68.29" r="0.60" fill="#F2E7D0" opacity="0.19"/><circle cx="167.75" cy="-46.86" r="0.27" fill="#F2E7D0" opacity="0.16"/><path d="M 54.84 -72.08 l 3.63 -1.12" fill="none" stroke="#F2E7D0" stroke-width="0.24" opacity="0.23"/><circle cx="71.35" cy="-40.68" r="0.34" fill="#F2E7D0" opacity="0.07"/><circle cx="-73.51" cy="-31.08" r="0.55" fill="#F2E7D0" opacity="0.11"/><circle cx="122.21" cy="-117.61" r="0.10" fill="#F2E7D0" opacity="0.24"/><circle cx="46.70" cy="-65.38" r="0.58" fill="#F2E7D0" opacity="0.17"/><path d="M 159.27 -114.25 l 0.77 -0.04" fill="none" stroke="#F2E7D0" stroke-width="0.21" opacity="0.24"/><circle cx="79.38" cy="-30.32" r="0.20" fill="#F2E7D0" opacity="0.17"/><circle cx="-71.17" cy="-37.97" r="0.69" fill="#F2E7D0" opacity="0.24"/><path d="M -90.45 -17.23 l 2.33 0.98" fill="none" stroke="#F2E7D0" stroke-width="0.69" opacity="0.08"/><circle cx="-14.76" cy="-55.32" r="0.42" fill="#F2E7D0" opacity="0.26"/><circle cx="100.47" cy="-97.90" r="0.65" fill="#F2E7D0" opacity="0.22"/><circle cx="115.11" cy="-39.37" r="0.19" fill="#F2E7D0" opacity="0.21"/><circle cx="92.82" cy="-49.41" r="0.22" fill="#F2E7D0" opacity="0.15"/><circle cx="90.78" cy="-66.96" r="0.30" fill="#F2E7D0" opacity="0.20"/><circle cx="86.36" cy="-81.42" r="0.46" fill="#F2E7D0" opacity="0.23"/><circle cx="83.69" cy="-128.88" r="0.25" fill="#F2E7D0" opacity="0.14"/><circle cx="-68.93" cy="-36.86" r="0.14" fill="#F2E7D0" opacity="0.06"/><circle cx="44.89" cy="-88.97" r="0.50" fill="#F2E7D0" opacity="0.23"/><circle cx="107.71" cy="-49.26" r="0.18" fill="#F2E7D0" opacity="0.08"/><path d="M 9.95 -52.60 l 0.56 0.85" fill="none" stroke="#F2E7D0" stroke-width="0.61" opacity="0.18"/><circle cx="-61.53" cy="-20.23" r="0.66" fill="#F2E7D0" opacity="0.05"/><circle cx="-49.41" cy="-30.41" r="0.49" fill="#F2E7D0" opacity="0.07"/><path d="M -108.91 -16.97 l 2.31 0.35" fill="none" stroke="#F2E7D0" stroke-width="0.42" opacity="0.07"/><circle cx="-61.07" cy="-55.39" r="0.66" fill="#F2E7D0" opacity="0.20"/><circle cx="-43.61" cy="-67.12" r="0.43" fill="#F2E7D0" opacity="0.17"/><circle cx="33.19" cy="-24.15" r="0.34" fill="#F2E7D0" opacity="0.18"/><circle cx="16.71" cy="-41.49" r="0.38" fill="#F2E7D0" opacity="0.19"/><circle cx="141.36" cy="-41.28" r="0.47" fill="#F2E7D0" opacity="0.21"/><circle cx="-58.98" cy="-16.77" r="0.36" fill="#F2E7D0" opacity="0.16"/><path d="M 43.96 -67.98 l 2.38 0.79" fill="none" stroke="#F2E7D0" stroke-width="0.66" opacity="0.24"/><circle cx="37.98" cy="-57.00" r="0.48" fill="#F2E7D0" opacity="0.26"/><circle cx="68.89" cy="-82.82" r="0.40" fill="#F2E7D0" opacity="0.09"/><path d="M 60.57 -84.45 l 3.39 -0.41" fill="none" stroke="#F2E7D0" stroke-width="0.59" opacity="0.19"/><circle cx="-63.39" cy="-51.87" r="0.45" fill="#F2E7D0" opacity="0.12"/><circle cx="-69.29" cy="-16.39" r="0.68" fill="#F2E7D0" opacity="0.23"/><circle cx="-32.31" cy="-48.04" r="0.13" fill="#F2E7D0" opacity="0.08"/><circle cx="153.16" cy="-55.66" r="0.37" fill="#F2E7D0" opacity="0.12"/><circle cx="61.73" cy="-108.63" r="0.40" fill="#F2E7D0" opacity="0.08"/><path d="M 109.78 -120.40 l 1.00 0.65" fill="none" stroke="#F2E7D0" stroke-width="0.29" opacity="0.11"/><circle cx="94.02" cy="-74.02" r="0.40" fill="#F2E7D0" opacity="0.10"/><circle cx="-45.85" cy="-46.68" r="0.22" fill="#F2E7D0" opacity="0.15"/><circle cx="-116.76" cy="-3.67" r="0.43" fill="#F2E7D0" opacity="0.05"/><circle cx="58.60" cy="-26.55" r="0.31" fill="#F2E7D0" opacity="0.11"/><path d="M 74.26 -63.57 l 3.14 -1.11" fill="none" stroke="#F2E7D0" stroke-width="0.49" opacity="0.07"/><circle cx="156.33" cy="-111.33" r="0.59" fill="#F2E7D0" opacity="0.05"/><circle cx="-22.98" cy="-75.65" r="0.56" fill="#F2E7D0" opacity="0.24"/><path d="M 82.57 -87.82 l 3.11 1.17" fill="none" stroke="#F2E7D0" stroke-width="0.35" opacity="0.09"/><circle cx="-26.91" cy="-29.50" r="0.64" fill="#F2E7D0" opacity="0.17"/><circle cx="82.30" cy="-124.26" r="0.55" fill="#F2E7D0" opacity="0.20"/><circle cx="-23.28" cy="-75.33" r="0.40" fill="#F2E7D0" opacity="0.25"/><circle cx="-61.24" cy="-36.90" r="0.33" fill="#F2E7D0" opacity="0.04"/><circle cx="-72.24" cy="-23.25" r="0.41" fill="#F2E7D0" opacity="0.17"/><circle cx="-128.90" cy="-32.83" r="0.44" fill="#F2E7D0" opacity="0.25"/><circle cx="96.45" cy="-127.97" r="0.19" fill="#F2E7D0" opacity="0.09"/><circle cx="87.33" cy="-128.17" r="0.15" fill="#F2E7D0" opacity="0.26"/><path d="M 36.63 -49.12 l 3.10 0.20" fill="none" stroke="#F2E7D0" stroke-width="0.23" opacity="0.08"/><circle cx="38.18" cy="-47.45" r="0.10" fill="#F2E7D0" opacity="0.04"/><circle cx="125.96" cy="-52.47" r="0.60" fill="#F2E7D0" opacity="0.06"/><circle cx="-66.31" cy="-57.16" r="0.64" fill="#F2E7D0" opacity="0.24"/><circle cx="135.40" cy="-110.74" r="0.12" fill="#F2E7D0" opacity="0.17"/><circle cx="91.68" cy="-113.77" r="0.54" fill="#F2E7D0" opacity="0.09"/><circle cx="134.41" cy="-109.60" r="0.45" fill="#F2E7D0" opacity="0.24"/><circle cx="-121.63" cy="-15.63" r="0.42" fill="#F2E7D0" opacity="0.15"/><circle cx="-9.77" cy="-49.77" r="0.25" fill="#F2E7D0" opacity="0.11"/><circle cx="-162.30" cy="-31.40" r="0.11" fill="#F2E7D0" opacity="0.09"/><circle cx="63.32" cy="-104.45" r="0.63" fill="#F2E7D0" opacity="0.21"/><circle cx="117.49" cy="-109.69" r="0.49" fill="#F2E7D0" opacity="0.14"/><circle cx="-9.11" cy="-33.80" r="0.22" fill="#F2E7D0" opacity="0.20"/><circle cx="-79.63" cy="-10.21" r="0.21" fill="#F2E7D0" opacity="0.12"/><path d="M 119.32 -91.83 l 1.89 -1.39" fill="none" stroke="#F2E7D0" stroke-width="0.54" opacity="0.16"/><circle cx="113.67" cy="-35.84" r="0.13" fill="#F2E7D0" opacity="0.16"/><circle cx="87.16" cy="-75.54" r="0.43" fill="#F2E7D0" opacity="0.12"/><circle cx="126.23" cy="-113.05" r="0.44" fill="#F2E7D0" opacity="0.12"/><circle cx="82.00" cy="-87.19" r="0.19" fill="#F2E7D0" opacity="0.19"/><circle cx="-51.76" cy="-18.76" r="0.19" fill="#F2E7D0" opacity="0.20"/><circle cx="-68.50" cy="-28.93" r="0.29" fill="#F2E7D0" opacity="0.05"/><circle cx="-173.04" cy="-14.18" r="0.19" fill="#F2E7D0" opacity="0.18"/><path d="M 49.76 -39.88 l 4.11 0.28" fill="none" stroke="#F2E7D0" stroke-width="0.58" opacity="0.26"/><circle cx="168.59" cy="-56.84" r="0.21" fill="#F2E7D0" opacity="0.21"/><circle cx="74.56" cy="-65.44" r="0.09" fill="#F2E7D0" opacity="0.11"/><circle cx="58.31" cy="-58.86" r="0.65" fill="#F2E7D0" opacity="0.16"/><circle cx="-170.09" cy="-21.94" r="0.52" fill="#F2E7D0" opacity="0.26"/><circle cx="45.15" cy="-76.10" r="0.42" fill="#F2E7D0" opacity="0.13"/><circle cx="42.38" cy="-69.89" r="0.70" fill="#F2E7D0" opacity="0.21"/><circle cx="-62.01" cy="-66.99" r="0.21" fill="#F2E7D0" opacity="0.24"/><circle cx="106.77" cy="-116.13" r="0.48" fill="#F2E7D0" opacity="0.09"/><circle cx="-149.42" cy="-15.60" r="0.69" fill="#F2E7D0" opacity="0.14"/><circle cx="22.93" cy="-48.82" r="0.43" fill="#F2E7D0" opacity="0.11"/><circle cx="-11.13" cy="-70.89" r="0.15" fill="#F2E7D0" opacity="0.25"/><circle cx="150.34" cy="-42.13" r="0.34" fill="#F2E7D0" opacity="0.23"/><circle cx="124.42" cy="-100.25" r="0.27" fill="#F2E7D0" opacity="0.20"/><circle cx="145.57" cy="-108.03" r="0.15" fill="#F2E7D0" opacity="0.26"/><circle cx="-150.60" cy="-25.37" r="0.40" fill="#F2E7D0" opacity="0.24"/><circle cx="51.23" cy="-23.34" r="0.35" fill="#F2E7D0" opacity="0.20"/><circle cx="-34.71" cy="-70.87" r="0.62" fill="#F2E7D0" opacity="0.04"/><circle cx="39.32" cy="-33.67" r="0.61" fill="#F2E7D0" opacity="0.11"/><circle cx="123.62" cy="-45.05" r="0.36" fill="#F2E7D0" opacity="0.14"/><circle cx="72.41" cy="-102.63" r="0.09" fill="#F2E7D0" opacity="0.22"/><circle cx="-54.96" cy="-77.00" r="0.61" fill="#F2E7D0" opacity="0.14"/><path d="M 112.92 -118.91 l 0.31 -0.84" fill="none" stroke="#F2E7D0" stroke-width="0.65" opacity="0.19"/><circle cx="50.16" cy="-75.54" r="0.11" fill="#F2E7D0" opacity="0.15"/><circle cx="-6.85" cy="-28.11" r="0.48" fill="#F2E7D0" opacity="0.25"/><circle cx="94.10" cy="-34.55" r="0.27" fill="#F2E7D0" opacity="0.10"/><circle cx="98.26" cy="-47.60" r="0.42" fill="#F2E7D0" opacity="0.25"/><path d="M -11.26 -35.49 l 0.46 0.14" fill="none" stroke="#F2E7D0" stroke-width="0.53" opacity="0.14"/><circle cx="119.38" cy="-40.58" r="0.67" fill="#F2E7D0" opacity="0.14"/><circle cx="-104.35" cy="-32.60" r="0.38" fill="#F2E7D0" opacity="0.22"/><path d="M -140.71 -13.81 l 3.34 0.56" fill="none" stroke="#F2E7D0" stroke-width="0.23" opacity="0.13"/><circle cx="-56.84" cy="-66.55" r="0.56" fill="#F2E7D0" opacity="0.09"/><path d="M -10.97 -76.87 l 2.91 -0.70" fill="none" stroke="#F2E7D0" stroke-width="0.38" opacity="0.26"/><circle cx="25.57" cy="-67.56" r="0.67" fill="#F2E7D0" opacity="0.20"/><circle cx="-65.51" cy="-30.57" r="0.42" fill="#F2E7D0" opacity="0.05"/><circle cx="92.89" cy="-62.39" r="0.25" fill="#F2E7D0" opacity="0.17"/><circle cx="-25.92" cy="-70.31" r="0.67" fill="#F2E7D0" opacity="0.17"/><circle cx="116.98" cy="-104.47" r="0.67" fill="#F2E7D0" opacity="0.25"/><circle cx="152.78" cy="-127.22" r="0.15" fill="#F2E7D0" opacity="0.05"/><path d="M -42.60 -52.07 l 2.79 -1.21" fill="none" stroke="#F2E7D0" stroke-width="0.40" opacity="0.25"/><circle cx="91.90" cy="-68.37" r="0.27" fill="#F2E7D0" opacity="0.22"/><circle cx="74.93" cy="-120.10" r="0.35" fill="#F2E7D0" opacity="0.05"/><circle cx="-30.11" cy="-59.95" r="0.58" fill="#F2E7D0" opacity="0.16"/><circle cx="108.20" cy="-52.23" r="0.59" fill="#F2E7D0" opacity="0.15"/><circle cx="108.68" cy="-31.79" r="0.33" fill="#F2E7D0" opacity="0.16"/><circle cx="102.33" cy="-125.94" r="0.23" fill="#F2E7D0" opacity="0.25"/><circle cx="-12.87" cy="-40.28" r="0.09" fill="#F2E7D0" opacity="0.04"/></svg>
