<svg xmlns="http://www.w3.org/2000/svg" width="188" height="138" viewBox="-94 -114 188 138"><polygon points="-70.0,0.0 -61.0,-49.0 -49.0,-90.0 49.0,-90.0 67.0,-69.0 58.0,-35.0 70.0,-9.0 28.0,0.0 7.0,-5.0 -31.0,0.0 " fill="#514052" opacity="1.00"/><polygon points="-49.0,-90.0 49.0,-90.0 43.0,-74.0 -40.0,-72.0 " fill="#B49197" opacity="0.46"/><polygon points="-49.0,-88.0 -41.0,-72.0 -33.0,-16.0 -60.0,-7.0 -61.0,-43.0 " fill="#6C5368" opacity="0.65"/><polygon points="44.0,-70.0 64.0,-60.0 59.0,-34.0 65.0,-9.0 31.0,-10.0 " fill="#3F3448" opacity="0.50"/><path d="M -39 -67 L -25 -46 L -30 -27 M 22 -39 L 15 -25 L 29 -13" fill="none" stroke="#F2E7D0" stroke-width="0.80" opacity="0.16" stroke-linecap="round" stroke-linejoin="round"/><circle cx="2.13" cy="-15.00" r="0.24" fill="#F2E7D0" opacity="0.18"/><circle cx="62.75" cy="-18.13" r="0.23" fill="#F2E7D0" opacity="0.15"/><circle cx="-45.93" cy="-68.36" r="0.24" fill="#F2E7D0" opacity="0.15"/><circle cx="-41.52" cy="-65.18" r="0.16" fill="#F2E7D0" opacity="0.23"/><path d="M 43.62 -71.04 l 3.16 -0.24" fill="none" stroke="#F2E7D0" stroke-width="0.65" opacity="0.05"/><circle cx="-15.97" cy="-86.96" r="0.14" fill="#F2E7D0" opacity="0.18"/><circle cx="-62.03" cy="-13.36" r="0.59" fill="#F2E7D0" opacity="0.16"/><circle cx="35.60" cy="-22.46" r="0.09" fill="#F2E7D0" opacity="0.14"/><circle cx="-31.02" cy="-37.62" r="0.43" fill="#F2E7D0" opacity="0.09"/><circle cx="-26.19" cy="-23.40" r="0.50" fill="#F2E7D0" opacity="0.21"/><path d="M -6.49 -85.86 l 0.53 1.18" fill="none" stroke="#F2E7D0" stroke-width="0.33" opacity="0.15"/><circle cx="17.25" cy="-55.64" r="0.26" fill="#F2E7D0" opacity="0.13"/><circle cx="-35.17" cy="-49.21" r="0.55" fill="#F2E7D0" opacity="0.09"/><circle cx="-7.89" cy="-73.98" r="0.38" fill="#F2E7D0" opacity="0.16"/><circle cx="31.54" cy="-17.10" r="0.46" fill="#F2E7D0" opacity="0.08"/><circle cx="13.56" cy="-39.75" r="0.26" fill="#F2E7D0" opacity="0.18"/><path d="M -11.68 -79.45 l 2.12 -0.96" fill="none" stroke="#F2E7D0" stroke-width="0.31" opacity="0.13"/><circle cx="-44.76" cy="-44.44" r="0.40" fill="#F2E7D0" opacity="0.23"/><circle cx="-38.27" cy="-42.40" r="0.42" fill="#F2E7D0" opacity="0.09"/><circle cx="-37.06" cy="-44.60" r="0.15" fill="#F2E7D0" opacity="0.25"/><circle cx="-1.77" cy="-7.04" r="0.45" fill="#F2E7D0" opacity="0.14"/><path d="M -15.51 -59.35 l 3.15 -1.32" fill="none" stroke="#F2E7D0" stroke-width="0.50" opacity="0.10"/><circle cx="-38.74" cy="-83.39" r="0.25" fill="#F2E7D0" opacity="0.11"/><circle cx="6.07" cy="-64.42" r="0.64" fill="#F2E7D0" opacity="0.11"/><circle cx="-1.30" cy="-57.36" r="0.52" fill="#F2E7D0" opacity="0.08"/><circle cx="-28.83" cy="-41.94" r="0.53" fill="#F2E7D0" opacity="0.13"/><path d="M -6.28 -85.89 l 3.19 -0.55" fill="none" stroke="#F2E7D0" stroke-width="0.57" opacity="0.20"/><circle cx="17.55" cy="-17.21" r="0.58" fill="#F2E7D0" opacity="0.12"/><circle cx="-25.11" cy="-36.16" r="0.46" fill="#F2E7D0" opacity="0.13"/><circle cx="20.44" cy="-57.63" r="0.14" fill="#F2E7D0" opacity="0.11"/><circle cx="-7.87" cy="-73.69" r="0.25" fill="#F2E7D0" opacity="0.12"/><circle cx="6.32" cy="-53.97" r="0.64" fill="#F2E7D0" opacity="0.05"/><circle cx="-21.43" cy="-88.04" r="0.49" fill="#F2E7D0" opacity="0.06"/><circle cx="-34.92" cy="-86.25" r="0.56" fill="#F2E7D0" opacity="0.21"/><circle cx="5.14" cy="-22.94" r="0.39" fill="#F2E7D0" opacity="0.12"/><path d="M 52.46 -22.62 l 1.00 -0.81" fill="none" stroke="#F2E7D0" stroke-width="0.26" opacity="0.11"/><circle cx="5.81" cy="-17.06" r="0.25" fill="#F2E7D0" opacity="0.16"/><circle cx="6.66" cy="-32.27" r="0.38" fill="#F2E7D0" opacity="0.12"/><circle cx="7.56" cy="-28.28" r="0.46" fill="#F2E7D0" opacity="0.12"/><circle cx="-4.27" cy="-76.66" r="0.28" fill="#F2E7D0" opacity="0.16"/><circle cx="-17.87" cy="-79.90" r="0.43" fill="#F2E7D0" opacity="0.10"/><circle cx="22.69" cy="-72.71" r="0.60" fill="#F2E7D0" opacity="0.22"/><circle cx="12.15" cy="-84.05" r="0.37" fill="#F2E7D0" opacity="0.16"/><circle cx="-21.36" cy="-15.43" r="0.44" fill="#F2E7D0" opacity="0.17"/><circle cx="59.80" cy="-8.73" r="0.19" fill="#F2E7D0" opacity="0.05"/><circle cx="44.72" cy="-78.12" r="0.40" fill="#F2E7D0" opacity="0.26"/><circle cx="33.66" cy="-17.05" r="0.66" fill="#F2E7D0" opacity="0.25"/><circle cx="-8.99" cy="-68.92" r="0.45" fill="#F2E7D0" opacity="0.23"/><path d="M -4.11 -27.33 l 1.79 1.17" fill="none" stroke="#F2E7D0" stroke-width="0.69" opacity="0.13"/><circle cx="59.48" cy="-76.12" r="0.47" fill="#F2E7D0" opacity="0.13"/><circle cx="45.35" cy="-14.92" r="0.39" fill="#F2E7D0" opacity="0.24"/><circle cx="42.25" cy="-82.04" r="0.36" fill="#F2E7D0" opacity="0.15"/><path d="M -13.78 -56.65 l 0.91 -0.56" fill="none" stroke="#F2E7D0" stroke-width="0.60" opacity="0.04"/><circle cx="-24.24" cy="-20.37" r="0.69" fill="#F2E7D0" opacity="0.06"/><circle cx="-52.34" cy="-19.42" r="0.24" fill="#F2E7D0" opacity="0.09"/><circle cx="14.12" cy="-69.09" r="0.17" fill="#F2E7D0" opacity="0.13"/><circle cx="19.26" cy="-89.68" r="0.46" fill="#F2E7D0" opacity="0.10"/><path d="M 6.01 -55.71 l 3.85 -0.38" fill="none" stroke="#F2E7D0" stroke-width="0.11" opacity="0.14"/><circle cx="31.43" cy="-10.91" r="0.33" fill="#F2E7D0" opacity="0.10"/><circle cx="40.22" cy="-21.83" r="0.12" fill="#F2E7D0" opacity="0.21"/><circle cx="-12.15" cy="-57.03" r="0.55" fill="#F2E7D0" opacity="0.06"/><circle cx="10.36" cy="-37.79" r="0.57" fill="#F2E7D0" opacity="0.13"/><circle cx="26.45" cy="-80.93" r="0.66" fill="#F2E7D0" opacity="0.11"/><circle cx="53.58" cy="-21.36" r="0.43" fill="#F2E7D0" opacity="0.14"/><circle cx="-49.48" cy="-63.94" r="0.20" fill="#F2E7D0" opacity="0.20"/><path d="M -11.11 -74.15 l 2.65 0.25" fill="none" stroke="#F2E7D0" stroke-width="0.39" opacity="0.14"/><circle cx="3.13" cy="-72.05" r="0.13" fill="#F2E7D0" opacity="0.05"/><circle cx="-18.75" cy="-73.87" r="0.16" fill="#F2E7D0" opacity="0.16"/><circle cx="39.71" cy="-22.84" r="0.53" fill="#F2E7D0" opacity="0.08"/><circle cx="-24.25" cy="-88.69" r="0.26" fill="#F2E7D0" opacity="0.06"/><path d="M -31.45 -20.21 l 1.15 -1.04" fill="none" stroke="#F2E7D0" stroke-width="0.13" opacity="0.09"/><circle cx="27.98" cy="-10.73" r="0.55" fill="#F2E7D0" opacity="0.25"/><circle cx="7.73" cy="-67.43" r="0.20" fill="#F2E7D0" opacity="0.18"/><circle cx="37.36" cy="-82.11" r="0.40" fill="#F2E7D0" opacity="0.13"/><circle cx="-51.37" cy="-47.43" r="0.32" fill="#F2E7D0" opacity="0.17"/><circle cx="-7.82" cy="-72.06" r="0.46" fill="#F2E7D0" opacity="0.18"/><circle cx="-1.42" cy="-58.77" r="0.10" fill="#F2E7D0" opacity="0.19"/><path d="M 23.53 -85.30 l 3.73 0.79" fill="none" stroke="#F2E7D0" stroke-width="0.61" opacity="0.19"/><circle cx="-38.94" cy="-37.46" r="0.41" fill="#F2E7D0" opacity="0.16"/><circle cx="-50.09" cy="-40.69" r="0.13" fill="#F2E7D0" opacity="0.12"/><circle cx="24.08" cy="-10.66" r="0.09" fill="#F2E7D0" opacity="0.17"/><circle cx="49.46" cy="-5.79" r="0.23" fill="#F2E7D0" opacity="0.22"/><circle cx="-29.72" cy="-68.55" r="0.13" fill="#F2E7D0" opacity="0.19"/><circle cx="44.90" cy="-81.31" r="0.28" fill="#F2E7D0" opacity="0.19"/><circle cx="5.94" cy="-81.05" r="0.59" fill="#F2E7D0" opacity="0.13"/><circle cx="-6.09" cy="-73.28" r="0.56" fill="#F2E7D0" opacity="0.13"/><circle cx="10.07" cy="-7.25" r="0.67" fill="#F2E7D0" opacity="0.17"/><path d="M 2.82 -76.21 l 4.16 1.00" fill="none" stroke="#F2E7D0" stroke-width="0.26" opacity="0.22"/><circle cx="20.50" cy="-35.60" r="0.22" fill="#F2E7D0" opacity="0.08"/><circle cx="16.17" cy="-88.48" r="0.65" fill="#F2E7D0" opacity="0.06"/><circle cx="-32.75" cy="-78.24" r="0.54" fill="#F2E7D0" opacity="0.23"/><circle cx="-51.50" cy="-46.93" r="0.10" fill="#F2E7D0" opacity="0.21"/><circle cx="-16.68" cy="-37.59" r="0.19" fill="#F2E7D0" opacity="0.12"/><circle cx="-23.92" cy="-59.01" r="0.69" fill="#F2E7D0" opacity="0.22"/><circle cx="11.65" cy="-22.62" r="0.16" fill="#F2E7D0" opacity="0.06"/><circle cx="-59.69" cy="-38.77" r="0.65" fill="#F2E7D0" opacity="0.23"/><path d="M 23.93 -20.49 l 2.57 1.03" fill="none" stroke="#F2E7D0" stroke-width="0.64" opacity="0.18"/><circle cx="23.32" cy="-62.38" r="0.26" fill="#F2E7D0" opacity="0.05"/><circle cx="6.80" cy="-26.19" r="0.25" fill="#F2E7D0" opacity="0.19"/><path d="M -32.75 -6.93 l 1.50 0.33" fill="none" stroke="#F2E7D0" stroke-width="0.50" opacity="0.10"/><circle cx="5.34" cy="-50.42" r="0.48" fill="#F2E7D0" opacity="0.05"/><circle cx="-44.32" cy="-17.46" r="0.34" fill="#F2E7D0" opacity="0.18"/><circle cx="11.60" cy="-18.40" r="0.34" fill="#F2E7D0" opacity="0.20"/><circle cx="17.62" cy="-41.17" r="0.65" fill="#F2E7D0" opacity="0.12"/><circle cx="-48.92" cy="-65.71" r="0.23" fill="#F2E7D0" opacity="0.23"/><circle cx="-20.93" cy="-35.25" r="0.55" fill="#F2E7D0" opacity="0.12"/><circle cx="-46.12" cy="-67.44" r="0.40" fill="#F2E7D0" opacity="0.20"/><circle cx="-44.03" cy="-77.41" r="0.30" fill="#F2E7D0" opacity="0.17"/><circle cx="25.78" cy="-44.95" r="0.16" fill="#F2E7D0" opacity="0.17"/><circle cx="-37.30" cy="-41.53" r="0.60" fill="#F2E7D0" opacity="0.24"/><path d="M 58.55 -64.44 l 3.26 1.11" fill="none" stroke="#F2E7D0" stroke-width="0.21" opacity="0.22"/><circle cx="40.65" cy="-61.71" r="0.45" fill="#F2E7D0" opacity="0.22"/><circle cx="-60.76" cy="-22.95" r="0.54" fill="#F2E7D0" opacity="0.16"/><circle cx="-23.23" cy="-11.94" r="0.61" fill="#F2E7D0" opacity="0.23"/><path d="M -28.11 -84.29 l 4.49 0.12" fill="none" stroke="#F2E7D0" stroke-width="0.22" opacity="0.23"/><circle cx="-18.40" cy="-82.17" r="0.22" fill="#F2E7D0" opacity="0.23"/><circle cx="-25.82" cy="-30.20" r="0.31" fill="#F2E7D0" opacity="0.25"/><path d="M -8.49 -34.26 l 0.36 -0.19" fill="none" stroke="#F2E7D0" stroke-width="0.29" opacity="0.14"/><circle cx="8.13" cy="-46.82" r="0.43" fill="#F2E7D0" opacity="0.17"/><circle cx="-42.28" cy="-75.25" r="0.12" fill="#F2E7D0" opacity="0.20"/><circle cx="42.56" cy="-47.85" r="0.13" fill="#F2E7D0" opacity="0.10"/><circle cx="-34.20" cy="-1.55" r="0.35" fill="#F2E7D0" opacity="0.13"/><circle cx="-7.41" cy="-44.54" r="0.47" fill="#F2E7D0" opacity="0.10"/><circle cx="-17.79" cy="-38.40" r="0.32" fill="#F2E7D0" opacity="0.24"/><circle cx="43.26" cy="-49.01" r="0.40" fill="#F2E7D0" opacity="0.15"/><path d="M 52.73 -13.34 l 0.31 0.00" fill="none" stroke="#F2E7D0" stroke-width="0.45" opacity="0.24"/><circle cx="12.97" cy="-43.91" r="0.44" fill="#F2E7D0" opacity="0.11"/><circle cx="-2.93" cy="-37.32" r="0.29" fill="#F2E7D0" opacity="0.15"/><circle cx="10.61" cy="-12.19" r="0.44" fill="#F2E7D0" opacity="0.25"/><circle cx="39.69" cy="-58.01" r="0.11" fill="#F2E7D0" opacity="0.25"/><circle cx="-17.77" cy="-45.76" r="0.52" fill="#F2E7D0" opacity="0.18"/><circle cx="51.89" cy="-15.53" r="0.53" fill="#F2E7D0" opacity="0.24"/><circle cx="-0.71" cy="-38.55" r="0.13" fill="#F2E7D0" opacity="0.19"/><path d="M 4.94 -87.49 l 0.39 0.80" fill="none" stroke="#F2E7D0" stroke-width="0.64" opacity="0.09"/><circle cx="-24.50" cy="-54.42" r="0.68" fill="#F2E7D0" opacity="0.24"/><path d="M 49.12 -22.32 l 1.71 -1.31" fill="none" stroke="#F2E7D0" stroke-width="0.44" opacity="0.09"/><circle cx="-44.97" cy="-32.72" r="0.22" fill="#F2E7D0" opacity="0.21"/><circle cx="-25.98" cy="-21.03" r="0.19" fill="#F2E7D0" opacity="0.23"/><circle cx="36.47" cy="-69.29" r="0.59" fill="#F2E7D0" opacity="0.17"/><circle cx="-46.79" cy="-17.04" r="0.22" fill="#F2E7D0" opacity="0.20"/><path d="M -52.85 -68.49 l 1.65 0.26" fill="none" stroke="#F2E7D0" stroke-width="0.59" opacity="0.10"/><circle cx="13.65" cy="-11.04" r="0.66" fill="#F2E7D0" opacity="0.25"/><circle cx="-49.60" cy="-63.01" r="0.08" fill="#F2E7D0" opacity="0.21"/><circle cx="46.30" cy="-50.02" r="0.10" fill="#F2E7D0" opacity="0.11"/><circle cx="-43.70" cy="-11.67" r="0.12" fill="#F2E7D0" opacity="0.09"/><circle cx="-52.37" cy="-68.30" r="0.33" fill="#F2E7D0" opacity="0.20"/><circle cx="-7.67" cy="-33.12" r="0.27" fill="#F2E7D0" opacity="0.09"/><circle cx="10.92" cy="-8.94" r="0.38" fill="#F2E7D0" opacity="0.15"/><circle cx="-15.47" cy="-66.30" r="0.53" fill="#F2E7D0" opacity="0.06"/><circle cx="-45.03" cy="-3.80" r="0.16" fill="#F2E7D0" opacity="0.12"/><circle cx="5.23" cy="-48.62" r="0.59" fill="#F2E7D0" opacity="0.06"/><path d="M -52.18 -70.43 l 2.10 0.89" fill="none" stroke="#F2E7D0" stroke-width="0.53" opacity="0.07"/><circle cx="58.95" cy="-19.82" r="0.62" fill="#F2E7D0" opacity="0.21"/><circle cx="67.98" cy="-11.70" r="0.28" fill="#F2E7D0" opacity="0.08"/><circle cx="39.73" cy="-58.79" r="0.37" fill="#F2E7D0" opacity="0.16"/><path d="M -32.26 -72.19 l 4.17 -1.34" fill="none" stroke="#F2E7D0" stroke-width="0.52" opacity="0.15"/><circle cx="28.29" cy="-74.05" r="0.11" fill="#F2E7D0" opacity="0.11"/><circle cx="2.14" cy="-48.35" r="0.29" fill="#F2E7D0" opacity="0.18"/><circle cx="-53.27" cy="-42.18" r="0.25" fill="#F2E7D0" opacity="0.18"/><circle cx="-12.15" cy="-7.53" r="0.66" fill="#F2E7D0" opacity="0.10"/><circle cx="31.89" cy="-18.91" r="0.68" fill="#F2E7D0" opacity="0.24"/><path d="M 14.53 -23.10 l 4.40 -0.61" fill="none" stroke="#F2E7D0" stroke-width="0.20" opacity="0.06"/><circle cx="-31.99" cy="-72.52" r="0.24" fill="#F2E7D0" opacity="0.08"/><circle cx="60.66" cy="-24.42" r="0.30" fill="#F2E7D0" opacity="0.09"/><circle cx="57.58" cy="-31.55" r="0.66" fill="#F2E7D0" opacity="0.09"/><circle cx="-14.07" cy="-51.34" r="0.39" fill="#F2E7D0" opacity="0.19"/><circle cx="-56.28" cy="-53.38" r="0.39" fill="#F2E7D0" opacity="0.08"/><circle cx="-8.93" cy="-55.34" r="0.50" fill="#F2E7D0" opacity="0.13"/><path d="M 39.34 -89.30 l 1.20 0.94" fill="none" stroke="#F2E7D0" stroke-width="0.52" opacity="0.19"/><circle cx="28.23" cy="-20.28" r="0.48" fill="#F2E7D0" opacity="0.05"/><circle cx="21.01" cy="-24.65" r="0.44" fill="#F2E7D0" opacity="0.16"/><circle cx="30.52" cy="-62.77" r="0.68" fill="#F2E7D0" opacity="0.24"/><circle cx="4.74" cy="-27.03" r="0.28" fill="#F2E7D0" opacity="0.16"/><circle cx="-25.54" cy="-4.73" r="0.11" fill="#F2E7D0" opacity="0.25"/><path d="M 61.16 -48.23 l 3.42 -0.31" fill="none" stroke="#F2E7D0" stroke-width="0.48" opacity="0.18"/><circle cx="-12.50" cy="-6.19" r="0.25" fill="#F2E7D0" opacity="0.14"/><circle cx="-25.77" cy="-63.20" r="0.31" fill="#F2E7D0" opacity="0.10"/><circle cx="-40.26" cy="-19.46" r="0.14" fill="#F2E7D0" opacity="0.23"/><circle cx="30.38" cy="-19.97" r="0.23" fill="#F2E7D0" opacity="0.20"/><circle cx="35.29" cy="-21.40" r="0.27" fill="#F2E7D0" opacity="0.17"/><circle cx="31.96" cy="-50.13" r="0.15" fill="#F2E7D0" opacity="0.23"/><circle cx="-31.96" cy="-79.43" r="0.38" fill="#F2E7D0" opacity="0.21"/><circle cx="0.81" cy="-36.15" r="0.14" fill="#F2E7D0" opacity="0.26"/><circle cx="62.07" cy="-61.31" r="0.40" fill="#F2E7D0" opacity="0.16"/><circle cx="-38.48" cy="-39.16" r="0.45" fill="#F2E7D0" opacity="0.18"/><circle cx="-63.15" cy="-5.25" r="0.70" fill="#F2E7D0" opacity="0.13"/><circle cx="24.50" cy="-8.57" r="0.37" fill="#F2E7D0" opacity="0.26"/><circle cx="15.66" cy="-9.51" r="0.34" fill="#F2E7D0" opacity="0.05"/><circle cx="46.59" cy="-74.39" r="0.14" fill="#F2E7D0" opacity="0.16"/><circle cx="15.81" cy="-45.78" r="0.46" fill="#F2E7D0" opacity="0.17"/><circle cx="48.54" cy="-89.93" r="0.49" fill="#F2E7D0" opacity="0.06"/><circle cx="39.36" cy="-46.77" r="0.08" fill="#F2E7D0" opacity="0.17"/><circle cx="47.37" cy="-18.47" r="0.30" fill="#F2E7D0" opacity="0.21"/><circle cx="-61.45" cy="-14.62" r="0.14" fill="#F2E7D0" opacity="0.16"/><circle cx="12.06" cy="-72.06" r="0.09" fill="#F2E7D0" opacity="0.20"/><circle cx="-21.81" cy="-22.96" r="0.52" fill="#F2E7D0" opacity="0.26"/><circle cx="-15.45" cy="-51.74" r="0.17" fill="#F2E7D0" opacity="0.12"/><circle cx="-12.19" cy="-36.73" r="0.09" fill="#F2E7D0" opacity="0.06"/><circle cx="17.05" cy="-3.76" r="0.13" fill="#F2E7D0" opacity="0.21"/><circle cx="6.62" cy="-28.10" r="0.21" fill="#F2E7D0" opacity="0.20"/><circle cx="-23.48" cy="-77.13" r="0.40" fill="#F2E7D0" opacity="0.19"/><circle cx="38.26" cy="-33.05" r="0.40" fill="#F2E7D0" opacity="0.12"/><circle cx="-0.47" cy="-35.44" r="0.52" fill="#F2E7D0" opacity="0.21"/><circle cx="-51.80" cy="-34.28" r="0.17" fill="#F2E7D0" opacity="0.06"/><circle cx="31.67" cy="-23.42" r="0.52" fill="#F2E7D0" opacity="0.12"/><path d="M -27.73 -0.92 l 2.89 -0.07" fill="none" stroke="#F2E7D0" stroke-width="0.42" opacity="0.19"/><circle cx="27.98" cy="-69.91" r="0.39" fill="#F2E7D0" opacity="0.07"/><circle cx="-33.28" cy="-3.01" r="0.37" fill="#F2E7D0" opacity="0.16"/><circle cx="-6.22" cy="-16.79" r="0.60" fill="#F2E7D0" opacity="0.06"/><circle cx="3.80" cy="-62.06" r="0.12" fill="#F2E7D0" opacity="0.09"/><circle cx="27.27" cy="-74.72" r="0.08" fill="#F2E7D0" opacity="0.24"/><circle cx="31.39" cy="-33.53" r="0.62" fill="#F2E7D0" opacity="0.22"/><circle cx="-58.53" cy="-51.72" r="0.64" fill="#F2E7D0" opacity="0.09"/><circle cx="-7.28" cy="-22.83" r="0.61" fill="#F2E7D0" opacity="0.25"/><circle cx="-44.80" cy="-37.24" r="0.64" fill="#F2E7D0" opacity="0.06"/><circle cx="-8.14" cy="-49.40" r="0.33" fill="#F2E7D0" opacity="0.22"/><path d="M -59.34 -43.88 l 0.37 -0.40" fill="none" stroke="#F2E7D0" stroke-width="0.38" opacity="0.09"/><circle cx="-58.02" cy="-0.55" r="0.53" fill="#F2E7D0" opacity="0.26"/><circle cx="29.97" cy="-62.74" r="0.62" fill="#F2E7D0" opacity="0.04"/><circle cx="-47.85" cy="-21.27" r="0.17" fill="#F2E7D0" opacity="0.08"/><circle cx="43.77" cy="-72.40" r="0.08" fill="#F2E7D0" opacity="0.23"/><path d="M 14.10 -64.30 l 0.63 0.74" fill="none" stroke="#F2E7D0" stroke-width="0.67" opacity="0.12"/><circle cx="8.27" cy="-64.92" r="0.66" fill="#F2E7D0" opacity="0.16"/><circle cx="-11.41" cy="-10.60" r="0.50" fill="#F2E7D0" opacity="0.10"/><circle cx="-60.05" cy="-30.06" r="0.48" fill="#F2E7D0" opacity="0.16"/><path d="M -7.39 -77.86 l 2.58 -0.02" fill="none" stroke="#F2E7D0" stroke-width="0.52" opacity="0.18"/><circle cx="11.56" cy="-21.29" r="0.54" fill="#F2E7D0" opacity="0.10"/><circle cx="59.36" cy="-24.28" r="0.69" fill="#F2E7D0" opacity="0.18"/><circle cx="-22.30" cy="-49.10" r="0.22" fill="#F2E7D0" opacity="0.19"/><path d="M -13.29 -15.16 l 2.89 0.95" fill="none" stroke="#F2E7D0" stroke-width="0.57" opacity="0.15"/><circle cx="7.52" cy="-21.98" r="0.42" fill="#F2E7D0" opacity="0.05"/><circle cx="28.34" cy="-60.39" r="0.40" fill="#F2E7D0" opacity="0.18"/><circle cx="21.66" cy="-75.78" r="0.24" fill="#F2E7D0" opacity="0.11"/><circle cx="52.95" cy="-26.59" r="0.58" fill="#F2E7D0" opacity="0.08"/><circle cx="38.02" cy="-24.88" r="0.54" fill="#F2E7D0" opacity="0.19"/><circle cx="13.12" cy="-56.96" r="0.59" fill="#F2E7D0" opacity="0.17"/><path d="M -30.43 -86.41 l 4.29 -0.57" fill="none" stroke="#F2E7D0" stroke-width="0.20" opacity="0.22"/><circle cx="-21.94" cy="-37.64" r="0.50" fill="#F2E7D0" opacity="0.08"/><circle cx="13.94" cy="-49.59" r="0.19" fill="#F2E7D0" opacity="0.17"/><circle cx="28.48" cy="-57.07" r="0.52" fill="#F2E7D0" opacity="0.16"/><path d="M -12.19 -9.98 l 3.07 -1.09" fill="none" stroke="#F2E7D0" stroke-width="0.68" opacity="0.16"/><circle cx="3.47" cy="-14.13" r="0.46" fill="#F2E7D0" opacity="0.18"/><circle cx="-53.79" cy="-54.51" r="0.38" fill="#F2E7D0" opacity="0.22"/><circle cx="-44.62" cy="-49.93" r="0.43" fill="#F2E7D0" opacity="0.19"/><circle cx="45.77" cy="-57.83" r="0.68" fill="#F2E7D0" opacity="0.16"/><path d="M 29.95 -77.13 l 0.75 0.15" fill="none" stroke="#F2E7D0" stroke-width="0.57" opacity="0.07"/><circle cx="-24.68" cy="-84.31" r="0.25" fill="#F2E7D0" opacity="0.17"/><circle cx="15.15" cy="-70.17" r="0.24" fill="#F2E7D0" opacity="0.22"/></svg>
